<svg width="16" height="15" viewBox="0 0 16 15" fill="none" xmlns="http://www.w3.org/2000/svg">
<path fill-rule="evenodd" clip-rule="evenodd" d="M12.2364 8.4207C12.6549 8.4207 13.0498 8.60215 13.3772 8.94153L15.2302 10.793C15.5711 11.129 15.75 11.5289 15.75 11.9456C15.75 12.3589 15.5745 12.7621 15.2403 13.1082C15.0952 13.2594 14.9467 13.4039 14.8016 13.5417C14.7858 13.5569 14.7701 13.572 14.7545 13.587C14.559 13.7751 14.3734 13.9539 14.2109 14.1499C14.2092 14.1532 14.2067 14.1557 14.2041 14.1583C14.2016 14.1608 14.1991 14.1633 14.1974 14.1667C13.6843 14.7211 13.0295 15 12.2499 15C12.1824 15 12.1081 14.9966 12.0372 14.9933C10.8795 14.9194 9.84331 14.4859 9.067 14.1196C7.0351 13.1418 5.25635 11.754 3.77799 9.99664C2.55952 8.53831 1.74271 7.17742 1.19592 5.70901C0.973154 5.11089 0.682883 4.19691 0.763889 3.21573C0.817893 2.60753 1.06429 2.08333 1.49632 1.65323L2.6439 0.500672L2.65065 0.493952C2.98818 0.171371 3.38646 0 3.79824 0C4.21002 0 4.60155 0.171371 4.92895 0.493952C5.14834 0.695565 5.36098 0.910618 5.56349 1.11895C5.66475 1.22648 5.77276 1.33401 5.87739 1.43817L6.79884 2.35551C7.50764 3.06116 7.50764 3.97513 6.79884 4.68078C6.75158 4.72782 6.70433 4.77571 6.65708 4.82359C6.60982 4.87147 6.56257 4.91935 6.51532 4.9664C6.49122 4.99071 6.46705 5.01512 6.44281 5.03961C6.21586 5.2689 5.98232 5.50483 5.73226 5.73253C5.93815 6.18616 6.22167 6.63306 6.64357 7.16398C7.51439 8.22917 8.42233 9.05242 9.42141 9.68414C9.51928 9.74462 9.63403 9.80174 9.75553 9.86222L9.75556 9.86223C9.78417 9.87705 9.81318 9.89186 9.84244 9.90681C9.89946 9.93593 9.95745 9.96555 10.0154 9.99664L11.082 8.93817C11.4229 8.59879 11.8212 8.4207 12.2364 8.4207ZM14.2507 12.8152C14.3671 12.7026 14.4774 12.5957 14.5855 12.4798C14.9298 12.1237 14.9298 11.7708 14.5822 11.4281L12.7224 9.57661L12.7157 9.56989C12.611 9.45565 12.4389 9.3246 12.2296 9.3246C12.017 9.3246 11.8347 9.46237 11.72 9.57661L10.5656 10.7258C10.5082 10.7829 10.3327 10.9577 10.0526 10.9577C9.94119 10.9577 9.83319 10.9308 9.71843 10.8737C9.71168 10.8703 9.70493 10.8661 9.69818 10.8619C9.69143 10.8577 9.68468 10.8535 9.67793 10.8501C9.58004 10.7897 9.46529 10.7325 9.34378 10.672L9.34377 10.672L9.34374 10.672C9.20874 10.6048 9.06699 10.5343 8.92862 10.4469C7.84516 9.76479 6.86297 8.87433 5.9314 7.73185L5.92802 7.72849C5.41498 7.07997 5.07746 6.53562 4.83782 5.95766L4.82769 5.92742C4.76694 5.73589 4.71293 5.45363 5.0032 5.16465C5.00538 5.16031 5.00897 5.15737 5.01306 5.15403C5.0153 5.15219 5.01769 5.15023 5.02008 5.14785C5.31373 4.88575 5.58375 4.61694 5.86727 4.32796C5.9324 4.26535 5.99603 4.20126 6.06016 4.13667C6.09241 4.10419 6.12479 4.07159 6.15754 4.03898C6.51532 3.6828 6.51532 3.35349 6.15754 2.99731L5.2361 2.07997C5.18251 2.02496 5.12892 1.97077 5.07575 1.917C5.02175 1.86239 4.96817 1.80821 4.91545 1.75403C4.70956 1.54234 4.51379 1.34409 4.3079 1.15255L4.29778 1.14247C4.18977 1.03495 4.01763 0.907258 3.80499 0.907258C3.63285 0.907258 3.45734 0.991263 3.29195 1.14583L2.14099 2.29167C1.86085 2.57056 1.70896 2.89651 1.67521 3.28965C1.62458 3.90457 1.73934 4.55645 2.05323 5.39315C2.5629 6.76411 3.33245 8.04099 4.48341 9.42204C5.87739 11.0786 7.55489 12.3858 9.46528 13.3065C10.164 13.6391 11.0955 14.0289 12.098 14.0927C12.1486 14.0961 12.2026 14.0961 12.2532 14.0961H12.2532C12.7798 14.0961 13.1814 13.9247 13.5223 13.5618C13.7316 13.3165 13.9544 13.0981 14.1738 12.8898C14.1997 12.8645 14.2254 12.8397 14.2507 12.8152Z" fill="#0081C2"/>
</svg>
