<svg width="17" height="11" viewBox="0 0 17 11" fill="none" xmlns="http://www.w3.org/2000/svg">
<path d="M1.39426 10.5053C1.25113 10.5053 1.108 10.4369 1.00069 10.3344C0.785994 10.1293 0.821776 9.78747 1.03647 9.61655L6.11734 5.03623C6.33204 4.83113 6.68983 4.86532 6.86874 5.07042C7.08343 5.27552 7.04765 5.61731 6.83296 5.78823L1.78783 10.3685C1.68052 10.4369 1.53739 10.5053 1.39426 10.5053Z" fill="#0081C2"/>
<path d="M16.1006 10.5054C15.9574 10.5054 15.8501 10.4712 15.7427 10.3686L10.6619 5.78831C10.4472 5.58321 10.4472 5.2756 10.6261 5.0705C10.8408 4.8654 11.1628 4.8654 11.3775 5.03631L16.4584 9.61663C16.6731 9.82173 16.6731 10.1293 16.4942 10.3344C16.3868 10.437 16.2437 10.5054 16.1006 10.5054Z" fill="#0081C2"/>
<path d="M8.76529 7.39477C8.62216 7.39477 8.51481 7.36059 8.4075 7.25804L1.25131 1.20791C1.03662 1.03699 1.00084 0.695193 1.21553 0.490094C1.39444 0.284995 1.75223 0.250812 1.96693 0.455911L8.76526 6.19842L15.5636 0.455911C15.7783 0.284995 16.1361 0.284995 16.315 0.490094C16.4939 0.695193 16.4939 1.03699 16.2792 1.20791L9.12305 7.25804C9.01573 7.3264 8.87264 7.39477 8.76529 7.39477Z" fill="#0081C2"/>
</svg>
