<svg width="13" height="16" viewBox="0 0 13 16" fill="none" xmlns="http://www.w3.org/2000/svg">
<path fill-rule="evenodd" clip-rule="evenodd" d="M0.768555 5.79456C0.768555 2.59944 3.45185 0 6.75007 0C10.0483 0 12.7315 2.59944 12.7316 5.79456C12.7316 9.75981 7.37872 15.581 7.15081 15.8269C6.93714 16.0575 6.56339 16.0579 6.34933 15.8269C6.12143 15.581 0.768555 9.75981 0.768555 5.79456ZM1.84572 5.79462C1.84572 8.516 4.94855 12.606 6.75007 14.679C8.55204 12.6053 11.6544 8.51609 11.6544 5.79459C11.6544 3.17481 9.45436 1.0435 6.75007 1.0435C4.04578 1.0435 1.84572 3.17481 1.84572 5.79462Z" fill="#0081C2"/>
<path fill-rule="evenodd" clip-rule="evenodd" d="M3.74023 5.79456C3.74023 4.18699 5.09023 2.87915 6.74965 2.87915C8.40904 2.87915 9.75904 4.18699 9.75904 5.79456C9.75904 7.40212 8.40904 8.70996 6.74965 8.70996C5.09027 8.70996 3.74023 7.40212 3.74023 5.79456ZM4.8174 5.79456C4.8174 6.82674 5.68417 7.66646 6.74965 7.66646C7.81511 7.66646 8.68191 6.82674 8.68191 5.79456C8.68191 4.76237 7.81511 3.92265 6.74965 3.92265C5.6842 3.92265 4.8174 4.76237 4.8174 5.79456Z" fill="#0081C2"/>
</svg>
