<svg width="20" height="22" viewBox="0 0 20 22" fill="none" xmlns="http://www.w3.org/2000/svg">
<path d="M19.5968 0H5.83209C5.62392 0 5.45461 0.169361 5.45461 0.377477V6.54903C5.45461 6.75719 5.62392 6.92651 5.83209 6.92651H6.83869C7.04681 6.92651 7.21617 6.75719 7.21617 6.54903V1.76156H18.2127V20.0309H7.21612V15.2434C7.21612 15.0352 7.04681 14.8659 6.83864 14.8659H5.83204C5.62392 14.8659 5.45456 15.0352 5.45456 15.2434V21.4149C5.45456 21.6231 5.62392 21.7924 5.83204 21.7924H19.5968C19.8049 21.7924 19.9742 21.6231 19.9742 21.4149V0.377477C19.9742 0.169361 19.8049 0 19.5968 0Z" fill="white"/>
<path d="M0.902435 10.3929V11.3995C0.902435 11.6077 1.07175 11.777 1.27991 11.777H11.2485L9.53969 13.4857C9.46837 13.557 9.42912 13.6518 9.42912 13.7527C9.42912 13.8535 9.46837 13.9483 9.53969 14.0196L10.2515 14.7314C10.3227 14.8027 10.4176 14.842 10.5184 14.842C10.6192 14.842 10.7139 14.8027 10.7853 14.7314L14.3537 11.1631C14.425 11.0918 14.4642 10.997 14.4642 10.8962C14.4642 10.7954 14.425 10.7006 14.3537 10.6293L10.7854 7.06102C10.714 6.98975 10.6193 6.95044 10.5185 6.95044C10.4176 6.95044 10.3228 6.9897 10.2515 7.06102L9.53969 7.77284C9.39258 7.92 9.39258 8.15947 9.53974 8.30664L11.2486 10.0155H1.27991C1.07175 10.0154 0.902435 10.1847 0.902435 10.3929Z" fill="white"/>
</svg>
