<svg width="20" height="22" viewBox="0 0 20 22" fill="none" xmlns="http://www.w3.org/2000/svg">
<path d="M19.5963 0H5.83163C5.62346 0 5.45415 0.169361 5.45415 0.377477V6.54903C5.45415 6.75719 5.62346 6.92651 5.83163 6.92651H6.83823C7.04635 6.92651 7.21571 6.75719 7.21571 6.54903V1.76156H18.2122V20.0309H7.21566V15.2434C7.21566 15.0352 7.04635 14.8659 6.83818 14.8659H5.83158C5.62346 14.8659 5.4541 15.0352 5.4541 15.2434V21.4149C5.4541 21.6231 5.62346 21.7924 5.83158 21.7924H19.5963C19.8044 21.7924 19.9738 21.6231 19.9738 21.4149V0.377477C19.9738 0.169361 19.8045 0 19.5963 0Z" fill="#231F20"/>
<path d="M0.902344 10.3929V11.3995C0.902344 11.6077 1.07165 11.777 1.27982 11.777H11.2484L9.5396 13.4858C9.46828 13.5571 9.42902 13.6518 9.42902 13.7527C9.42902 13.8535 9.46828 13.9483 9.5396 14.0196L10.2514 14.7314C10.3226 14.8027 10.4175 14.842 10.5183 14.842C10.6191 14.842 10.7139 14.8028 10.7852 14.7314L14.3536 11.1631C14.4249 11.0918 14.4641 10.997 14.4641 10.8962C14.4641 10.7954 14.4249 10.7006 14.3536 10.6293L10.7853 7.06105C10.714 6.98978 10.6192 6.95047 10.5184 6.95047C10.4175 6.95047 10.3227 6.98973 10.2514 7.06105L9.5396 7.77287C9.39248 7.92003 9.39248 8.1595 9.53965 8.30667L11.2485 10.0155H1.27982C1.07165 10.0154 0.902344 10.1847 0.902344 10.3929Z" fill="#231F20"/>
</svg>
