<svg width="38" height="38" viewBox="0 0 38 38" fill="none" xmlns="http://www.w3.org/2000/svg">
<path d="M0 0H38V36C38 37.1046 37.1046 38 36 38H2C0.89543 38 0 37.1046 0 36V0Z" fill="url(#paint0_linear)"/>
<path fill-rule="evenodd" clip-rule="evenodd" d="M15.625 10H22.375C25.4811 10 28 12.5189 28 15.625V22.375C28 25.4811 25.4811 28 22.375 28H15.625C12.5189 28 10 25.4811 10 22.375V15.625C10 12.5189 12.5189 10 15.625 10ZM22.375 26.3125C24.5463 26.3125 26.3125 24.5463 26.3125 22.375V15.625C26.3125 13.4537 24.5463 11.6875 22.375 11.6875H15.625C13.4537 11.6875 11.6875 13.4537 11.6875 15.625V22.375C11.6875 24.5463 13.4537 26.3125 15.625 26.3125H22.375Z" fill="white"/>
<path fill-rule="evenodd" clip-rule="evenodd" d="M14.5 19C14.5 16.5149 16.5149 14.5 19 14.5C21.4851 14.5 23.5 16.5149 23.5 19C23.5 21.4851 21.4851 23.5 19 23.5C16.5149 23.5 14.5 21.4851 14.5 19ZM16.1875 19C16.1875 20.5503 17.4497 21.8125 19 21.8125C20.5503 21.8125 21.8125 20.5503 21.8125 19C21.8125 17.4486 20.5503 16.1875 19 16.1875C17.4497 16.1875 16.1875 17.4486 16.1875 19Z" fill="white"/>
<path d="M23.8379 14.7621C24.1691 14.7621 24.4375 14.4937 24.4375 14.1625C24.4375 13.8313 24.1691 13.5629 23.8379 13.5629C23.5067 13.5629 23.2383 13.8313 23.2383 14.1625C23.2383 14.4937 23.5067 14.7621 23.8379 14.7621Z" fill="white"/>
<defs>
<linearGradient id="paint0_linear" x1="19" y1="-19" x2="-19" y2="19" gradientUnits="userSpaceOnUse">
<stop stop-color="#7029C1"/>
<stop offset="0.511323" stop-color="#E63C7C"/>
<stop offset="1" stop-color="#FC8023"/>
</linearGradient>
</defs>
</svg>
