<svg width="38" height="38" viewBox="0 0 38 38" fill="none" xmlns="http://www.w3.org/2000/svg">
<path d="M0 0H38V36C38 37.1046 37.1046 38 36 38H2C0.89543 38 0 37.1046 0 36V0Z" fill="#FF9D37"/>
<path fill-rule="evenodd" clip-rule="evenodd" d="M14.8779 15.2417C14.8779 12.9024 16.951 11 19.5002 11C22.0493 11 24.1224 12.9024 24.1224 15.2417C24.1224 17.581 22.0493 19.4834 19.5002 19.4834C16.951 19.4834 14.8779 17.581 14.8779 15.2417ZM17.189 15.2417C17.189 16.4114 18.2256 17.3626 19.5002 17.3626C20.7747 17.3626 21.8113 16.4114 21.8113 15.2417C21.8113 14.0721 20.7747 13.1209 19.5002 13.1209C18.2256 13.1209 17.189 14.0721 17.189 15.2417Z" fill="white"/>
<path d="M25.629 19.3657C25.1772 18.9511 24.4469 18.9511 23.9951 19.3657C21.5176 21.6393 17.4847 21.6393 15.006 19.3657C14.5542 18.9511 13.8239 18.9511 13.3721 19.3657C12.9202 19.7803 12.9202 20.4505 13.3721 20.8662C14.8096 22.1854 16.6319 22.9372 18.5108 23.1334L15.2163 26.1567C14.7645 26.5713 14.7645 27.2415 15.2163 27.6562C15.6682 28.0708 16.3985 28.0708 16.8503 27.6562L19.5 25.2246L22.1497 27.6562C22.375 27.8629 22.6708 27.9669 22.9666 27.9669C23.2625 27.9669 23.5583 27.8629 23.7836 27.6562C24.2354 27.2415 24.2354 26.5713 23.7836 26.1567L20.4891 23.1334C22.3681 22.9372 24.1904 22.1854 25.6279 20.8662C26.0797 20.4516 26.0797 19.7803 25.629 19.3657Z" fill="white"/>
</svg>
