<svg width="38" height="38" viewBox="0 0 38 38" fill="none" xmlns="http://www.w3.org/2000/svg">
<path d="M0 0H38V36C38 37.1046 37.1046 38 36 38H2C0.89543 38 0 37.1046 0 36V0Z" fill="#6895C9"/>
<path d="M25.6002 20.3305C26.1629 20.9003 26.7569 21.4364 27.2616 22.0636C27.4845 22.3423 27.6956 22.6299 27.8571 22.9534C28.0859 23.4132 27.8787 23.9192 27.4811 23.9467L25.0097 23.9455C24.3723 24.0004 23.8638 23.7343 23.4362 23.2823C23.094 22.9209 22.7772 22.5362 22.4481 22.1625C22.3133 22.0098 22.1721 21.8661 22.0034 21.7525C21.666 21.5254 21.3732 21.595 21.1804 21.9599C20.984 22.331 20.9395 22.742 20.9202 23.1557C20.8937 23.7592 20.7178 23.9179 20.1332 23.9455C18.8839 24.0066 17.6983 23.8106 16.5969 23.157C15.6258 22.5808 14.8728 21.7674 14.2174 20.8465C12.9412 19.0534 11.964 17.0831 11.0857 15.0575C10.888 14.6012 11.0326 14.3562 11.5181 14.3475C12.3243 14.3313 13.1305 14.3324 13.9377 14.3464C14.2653 14.3513 14.4823 14.5462 14.6088 14.8673C15.045 15.9796 15.5787 17.0379 16.2487 18.0188C16.4271 18.2799 16.6091 18.5411 16.8681 18.7249C17.1547 18.9284 17.3729 18.861 17.5078 18.5299C17.5933 18.3199 17.6308 18.0938 17.6501 17.869C17.7139 17.0954 17.7224 16.3231 17.6103 15.5523C17.5416 15.0712 17.2803 14.7597 16.8174 14.6687C16.5811 14.6223 16.6163 14.5311 16.7307 14.3913C16.9293 14.1501 17.1162 14 17.4886 14H20.2817C20.7214 14.09 20.819 14.2949 20.8792 14.7537L20.8816 17.9712C20.8768 18.1488 20.9672 18.676 21.2757 18.7935C21.5226 18.8772 21.6854 18.6724 21.8335 18.51C22.5023 17.7739 22.9795 16.904 23.4059 16.0033C23.5952 15.6072 23.7579 15.1959 23.9155 14.7849C24.0324 14.4799 24.2157 14.3299 24.5469 14.3365L27.2351 14.339C27.3148 14.339 27.3955 14.3402 27.4727 14.3539C27.9257 14.434 28.0498 14.6361 27.9099 15.0948C27.6894 15.8145 27.2605 16.4143 26.8412 17.0168C26.3929 17.6601 25.9134 18.2814 25.4688 18.9285C25.0604 19.5194 25.0928 19.8173 25.6002 20.3305Z" fill="white"/>
</svg>
